<svg width="30" height="30" viewBox="0 0 30 30" fill="none" xmlns="http://www.w3.org/2000/svg">
<path d="M14.95 0C12.0449 0.00551961 9.2041 0.855736 6.77361 2.44709C4.34313 4.03844 2.42786 6.30225 1.26111 8.96276C0.094353 11.6233 -0.273534 14.5657 0.202257 17.4316C0.678048 20.2974 1.97698 22.9631 3.94084 25.1039C5.34346 26.6243 7.04579 27.8377 8.94056 28.6676C10.8353 29.4975 12.8815 29.926 14.95 29.926C17.0186 29.926 19.0647 29.4975 20.9595 28.6676C22.8542 27.8377 24.5566 26.6243 25.9592 25.1039C27.923 22.9631 29.222 20.2974 29.6978 17.4316C30.1736 14.5657 29.8057 11.6233 28.6389 8.96276C27.4722 6.30225 25.5569 4.03844 23.1264 2.44709C20.6959 0.855736 17.8551 0.00551961 14.95 0ZM14.95 26.9612C11.8472 26.9565 8.86713 25.7484 6.63696 23.5911C7.31406 21.9428 8.46588 20.5329 9.94609 19.5407C11.4263 18.5485 13.168 18.0188 14.95 18.0188C16.732 18.0188 18.4737 18.5485 19.9539 19.5407C21.4341 20.5329 22.586 21.9428 23.2631 23.5911C21.0329 25.7484 18.0528 26.9565 14.95 26.9612ZM11.9543 11.9828C11.9543 11.3903 12.13 10.8111 12.4592 10.3185C12.7884 9.82581 13.2562 9.44185 13.8036 9.21511C14.351 8.98837 14.9533 8.92905 15.5344 9.04464C16.1155 9.16023 16.6493 9.44554 17.0683 9.8645C17.4872 10.2835 17.7726 10.8172 17.8881 11.3983C18.0037 11.9794 17.9444 12.5818 17.7177 13.1292C17.4909 13.6766 17.107 14.1444 16.6143 14.4736C16.1217 14.8028 15.5425 14.9785 14.95 14.9785C14.1555 14.9785 13.3935 14.6628 12.8317 14.101C12.2699 13.5392 11.9543 12.7773 11.9543 11.9828ZM25.3001 20.9698C23.9618 18.6808 21.9021 16.9002 19.4435 15.9071C20.2062 15.0424 20.7031 13.9759 20.8747 12.8357C21.0463 11.6955 20.8852 10.53 20.4108 9.47911C19.9364 8.4282 19.1688 7.5365 18.2002 6.91101C17.2316 6.28552 16.103 5.95281 14.95 5.95281C13.797 5.95281 12.6684 6.28552 11.6998 6.91101C10.7312 7.5365 9.96364 8.4282 9.48924 9.47911C9.01484 10.53 8.85376 11.6955 9.02532 12.8357C9.19689 13.9759 9.69382 15.0424 10.4565 15.9071C7.9979 16.9002 5.93817 18.6808 4.59989 20.9698C3.53334 19.1531 2.96982 17.0851 2.96724 14.9785C2.96724 11.8004 4.22971 8.75257 6.47691 6.50536C8.72412 4.25816 11.772 2.99569 14.95 2.99569C18.128 2.99569 21.1759 4.25816 23.4231 6.50536C25.6703 8.75257 26.9328 11.8004 26.9328 14.9785C26.9302 17.0851 26.3667 19.1531 25.3001 20.9698Z" fill="#FEAB39"/>
</svg>
